<?xml version="1.0" encoding="utf-8"?>
<!-- Generator: Adobe Illustrator 27.5.0, SVG Export Plug-In . SVG Version: 6.00 Build 0)  -->
<svg version="1.1" id="Layer_1" xmlns="http://www.w3.org/2000/svg" xmlns:xlink="http://www.w3.org/1999/xlink" x="0px" y="0px"
	 viewBox="0 0 2122 2122" style="enable-background:new 0 0 2122 2122;" xml:space="preserve">
<g>
	<rect style="fill:#FFFFFF;" width="2121.32" height="2121.32"/>
	<path style="opacity:0.2;fill:#CCCCCC;" d="M1003.867,547.796l-712.746,807.593c2.702,9.416,5.658,18.685,8.853,27.82
		l732.891-830.418C1023.305,550.867,1013.643,549.197,1003.867,547.796z M1203.579,621.36l-812.316,920.414
		c5.497,6.364,11.147,12.578,16.961,18.632l816.244-924.863C1217.64,630.637,1210.675,625.914,1203.579,621.36z M1077.896,563.866
		l-760.852,862.103c3.766,8.255,7.748,16.365,11.927,24.335l774.848-877.961C1095.292,569.299,1086.653,566.468,1077.896,563.866z
		 M920.44,542.375L274.599,1274.16c1.355,10.875,3.021,21.605,4.99,32.195L953.3,542.992
		C942.447,542.468,931.495,542.26,920.44,542.375z M1256.893,660.902l-818.995,927.98c6.282,5.503,12.72,10.826,19.287,15.998
		l818.272-927.161C1269.412,671.956,1263.233,666.34,1256.893,660.902z M849.271,547.337c-8.351,1.111-16.635,2.492-24.901,3.943
		l-553.651,627.327c-0.351,8.312-0.63,16.632-0.63,24.984c0,4.442,0.235,8.795,0.335,13.2l592.09-670.881
		C858.097,546.398,853.713,546.745,849.271,547.337z M527.503,687.75L367.686,868.834c-17.884,29.094-33.499,59.509-46.805,90.885
		l291.279-330.039C582.554,646.926,554.217,666.311,527.503,687.75z M707.502,583.749l-419.865,475.736
		c-3.937,16.166-7.187,32.508-9.821,48.978l477.358-540.878C739.055,572.364,723.144,577.731,707.502,583.749z M1144.106,588.795
		l-793.322,898.894c4.674,7.264,9.533,14.377,14.565,21.347l802.043-908.775C1159.752,596.246,1151.993,592.421,1144.106,588.795z
		 M1034.171,1650.766l363.954-412.388c5.82-18.053,10.839-36.356,15.029-54.879l-431.863,489.333
		C999.257,1666.251,1016.892,1658.886,1034.171,1650.766z M866.478,1702.973c13.534-2.197,26.986-4.705,40.273-7.783
		l518.842-587.886c1.31-13.461,2.027-27.009,2.423-40.596L866.478,1702.973z M1344.25,1361.524l-194.104,219.933
		C1229.324,1522.688,1296.017,1447.121,1344.25,1361.524z M1423.097,972.334L771.447,1710.7c11.331,0.016,22.765-0.33,34.293-1.006
		l620.914-703.54C1425.796,994.739,1424.62,983.462,1423.097,972.334z M1345.019,760.948l-795.347,901.186
		c7.898,3.732,15.914,7.269,24.053,10.597l785.092-889.566C1354.406,775.613,1349.802,768.209,1345.019,760.948z M1303.978,707.501
		l-813.215,921.431c7.07,4.64,14.267,9.101,21.598,13.379l807.87-915.376C1314.978,720.304,1309.559,713.828,1303.978,707.501z
		 M1379.163,822.214L615.479,1687.52c8.823,2.725,17.753,5.224,26.801,7.484l747.933-847.459
		C1386.748,838.958,1383.061,830.518,1379.163,822.214z M1405.761,892.026l-716.93,812.332c9.919,1.535,19.944,2.791,30.074,3.774
		l694.632-787.066C1411.205,911.245,1408.616,901.566,1405.761,892.026z"/>
	<path style="opacity:0.2;fill:#CCCCCC;" d="M1407.387,323.618l-712.746,807.593c2.702,9.416,5.658,18.685,8.853,27.819
		l732.89-830.419C1426.824,326.69,1417.162,325.019,1407.387,323.618z M1607.099,397.183l-812.317,920.413
		c5.498,6.365,11.147,12.578,16.962,18.632l816.244-924.864C1621.159,406.46,1614.194,401.736,1607.099,397.183z M1481.416,339.689
		l-760.853,862.102c3.767,8.255,7.748,16.365,11.927,24.336l774.848-877.961C1498.812,345.122,1490.172,342.29,1481.416,339.689z
		 M1323.959,318.197l-645.841,731.785c1.355,10.875,3.021,21.605,4.991,32.196l673.71-763.363
		C1345.967,318.29,1335.015,318.082,1323.959,318.197z M1660.413,436.724l-818.995,927.981c6.281,5.503,12.719,10.826,19.286,15.997
		l818.272-927.161C1672.931,447.778,1666.752,442.162,1660.413,436.724z M1252.79,323.159c-8.351,1.111-16.635,2.493-24.9,3.944
		L674.239,954.428c-0.35,8.312-0.63,16.633-0.63,24.984c0,4.442,0.236,8.795,0.335,13.2l592.091-670.881
		C1261.616,322.22,1257.232,322.568,1252.79,323.159z M931.022,463.573L771.206,644.657c-17.885,29.094-33.5,59.509-46.806,90.884
		l291.279-330.038C986.074,422.748,957.737,442.133,931.022,463.573z M1111.021,359.571L691.157,835.307
		c-3.937,16.166-7.187,32.508-9.822,48.978l477.358-540.879C1142.574,348.186,1126.663,353.553,1111.021,359.571z M1547.625,364.618
		l-793.322,898.893c4.675,7.265,9.533,14.377,14.566,21.347l802.042-908.774C1563.271,372.069,1555.512,368.243,1547.625,364.618z
		 M1437.69,1426.589l363.955-412.389c5.819-18.053,10.838-36.356,15.028-54.878l-431.863,489.333
		C1402.777,1442.074,1420.412,1434.708,1437.69,1426.589z M1269.997,1478.795c13.534-2.196,26.986-4.704,40.273-7.782
		l518.843-587.886c1.309-13.461,2.027-27.008,2.423-40.595L1269.997,1478.795z M1747.769,1137.347l-194.103,219.933
		C1632.844,1298.51,1699.536,1222.943,1747.769,1137.347z M1826.617,748.156l-651.65,738.366
		c11.331,0.016,22.764-0.329,34.292-1.006l620.914-703.54C1829.316,770.562,1828.14,759.284,1826.617,748.156z M1748.539,536.771
		l-795.348,901.186c7.898,3.731,15.914,7.269,24.053,10.596l785.092-889.566C1757.926,551.436,1753.321,544.031,1748.539,536.771z
		 M1707.498,483.323l-813.216,921.432c7.07,4.641,14.267,9.101,21.598,13.379l807.87-915.376
		C1718.497,496.126,1713.079,489.65,1707.498,483.323z M1782.682,598.036l-763.684,865.306c8.823,2.725,17.754,5.224,26.801,7.484
		l747.933-847.459C1790.268,614.78,1786.58,606.34,1782.682,598.036z M1809.28,667.848l-716.93,812.331
		c9.919,1.536,19.945,2.791,30.074,3.774l694.631-787.066C1814.725,687.068,1812.135,677.388,1809.28,667.848z"/>
	<radialGradient id="SVGID_1_" cx="1169.1271" cy="1306.8063" r="706.545" gradientUnits="userSpaceOnUse">
		<stop  offset="0" style="stop-color:#FF0000"/>
		<stop  offset="0.0783" style="stop-color:#FF1D1D"/>
		<stop  offset="0.2745" style="stop-color:#FF6161"/>
		<stop  offset="0.4607" style="stop-color:#FF9999"/>
		<stop  offset="0.6314" style="stop-color:#FFC5C5"/>
		<stop  offset="0.7836" style="stop-color:#FFE5E5"/>
		<stop  offset="0.9116" style="stop-color:#FFF8F8"/>
		<stop  offset="1" style="stop-color:#FFFFFF"/>
	</radialGradient>
	<circle style="fill:url(#SVGID_1_);" cx="1169.127" cy="1306.806" r="706.545"/>
	<g>
		
			<ellipse transform="matrix(0.7071 -0.7071 0.7071 0.7071 -411.5856 1070.0925)" style="fill:#000307;" cx="1085.923" cy="1031.874" rx="574.097" ry="574.097"/>
		<polygon style="fill:#B30000;" points="490.135,709.669 1625.968,1000.039 1625.968,1377.016 490.135,1086.645 		"/>
		<polygon style="fill:#FF0000;" points="1625.968,1000.039 239.517,1238.397 351.606,1411.745 239.517,1615.374 1625.968,1377.016 
					"/>
		<g>
			<path style="fill:#FFFFFF;" d="M517.87,1434.901l-66.439,11.027l-11.742,36.271l-59.947,9.948l76.43-209.613l57.951-9.613
				l76.433,184.243l-60.947,10.114L517.87,1434.901z M501.635,1389.771l-16.986-46.69l-16.983,52.326L501.635,1389.771z"/>
			<path style="fill:#FFFFFF;" d="M672.481,1394.055l-15.983,2.65v49.514l-58.948,9.782v-196.928l84.174-13.969
				c16.148-2.68,30.221-2.011,42.212,1.996c11.991,4.017,21.23,11.11,27.726,21.284c6.491,10.175,9.739,22.766,9.739,37.771
				c0,14.066-2.83,26.819-8.491,38.263c-5.661,11.444-13.822,21.137-24.478,29.096l36.716,54.674l-62.943,10.445L672.481,1394.055z
				 M695.963,1299.991c-3.996-3.37-9.992-4.388-17.986-3.061l-21.478,3.564v46.136l21.478-3.564
				c7.995-1.327,13.99-4.338,17.986-9.035c3.995-4.693,5.991-10.699,5.991-18.011
				C701.954,1308.705,699.958,1303.365,695.963,1299.991z"/>
			<path style="fill:#FFFFFF;" d="M856.063,1363.588l-15.983,2.655v49.51l-58.947,9.782v-196.928l84.173-13.965
				c16.149-2.683,30.221-2.014,42.212,1.996c11.991,4.017,21.231,11.106,27.726,21.281c6.491,10.178,9.74,22.766,9.74,37.771
				c0,14.066-2.831,26.823-8.492,38.264c-5.661,11.444-13.821,21.137-24.478,29.095l36.717,54.675l-62.944,10.448L856.063,1363.588z
				 M879.544,1269.525c-3.996-3.366-9.991-4.388-17.986-3.06l-21.478,3.564v46.136l21.478-3.564
				c7.995-1.327,13.99-4.334,17.986-9.031c3.996-4.697,5.992-10.703,5.992-18.015
				C885.536,1278.239,883.54,1272.898,879.544,1269.525z"/>
			<path style="fill:#FFFFFF;" d="M964.718,1198.141l58.947-9.782v196.931l-58.947,9.782V1198.141z"/>
			<path style="fill:#FFFFFF;" d="M1236.471,1153.047l-73.934,209.196l-57.951,9.617l-73.934-184.66l63.447-10.527l41.709,108.14
				l42.716-122.153L1236.471,1153.047z"/>
			<path style="fill:#FFFFFF;" d="M1352.618,1296.376l-66.439,11.027l-11.742,36.267l-59.947,9.952l76.434-209.613l57.947-9.617
				l76.433,184.247l-60.947,10.113L1352.618,1296.376z M1336.383,1251.248l-16.987-46.694l-16.983,52.33L1336.383,1251.248z"/>
			<path style="fill:#FFFFFF;" d="M1432.295,1120.549l58.948-9.782v145.447l78.929-13.098v51.48l-137.877,22.882V1120.549z"/>
		</g>
		<polygon style="fill:#FF0000;" points="1749.265,871.11 490.135,1086.645 490.135,709.669 1749.265,494.133 1618.495,716.053 		
			"/>
		<g>
			<path style="fill:#FFFFFF;" d="M887.619,716.864v230.322l-56.675,9.405l-77.707-91.733v104.63l-67.194,11.149V750.315
				l56.678-9.405l77.707,91.733v-104.63L887.619,716.864z"/>
			<path style="fill:#FFFFFF;" d="M1088.017,855.363v58.566l-170.019,28.214V711.822l166.225-27.582v58.565l-98.451,16.336v26.981
				l86.471-14.35v55.937l-86.471,14.35v30.272L1088.017,855.363z"/>
			<path style="fill:#FFFFFF;" d="M1441.495,624.948l-65.435,241.183l-73.913,12.265l-33.012-117.582l-34.761,128.827
				l-73.908,12.268l-65.443-219.464l70.992-11.778l35.637,125.037l37.688-137.208l63.393-10.52l35.638,126.688l37.688-138.854
				L1441.495,624.948z"/>
		</g>
	</g>
	<g>
		<path style="fill:#FF0000;" d="M282.142,1693.664c-1.729,0-3.272-1.223-3.614-2.985c-0.381-1.999,0.924-3.93,2.921-4.316
			l401.031-77.217c2.003-0.371,3.924,0.924,4.316,2.92c0.382,2-0.924,3.931-2.921,4.316l-401.031,77.217
			C282.606,1693.642,282.373,1693.664,282.142,1693.664z"/>
	</g>
	<g>
		<path style="fill:#FF0000;" d="M1532.556,468.16c-1.749,0-3.298-1.244-3.619-3.024c-0.367-2,0.96-3.916,2.964-4.28l356.193-64.762
			c2.004-0.378,3.916,0.956,4.28,2.963c0.367,2-0.96,3.916-2.963,4.28l-356.193,64.762
			C1532.994,468.142,1532.775,468.16,1532.556,468.16z"/>
	</g>
	<g>
		<polygon style="fill:#FF0000;" points="1736.013,1401.469 801.388,1557.24 801.388,1694.733 1736.013,1538.962 		"/>
		<g>
			<path style="fill:#FFFFFF;" d="M885.881,1641.766c-4.05-0.407-7.38-1.309-9.984-2.697l5.603-15.209
				c2.453,1.201,5.205,2.029,8.25,2.492c3.046,0.464,5.971,0.46,8.769-0.003c2.409-0.399,4.128-0.949,5.157-1.644
				c1.036-0.698,1.553-1.572,1.553-2.625c0-1.216-0.68-2.015-2.032-2.399c-1.352-0.385-3.571-0.68-6.664-0.888
				c-3.981-0.281-7.301-0.741-9.951-1.381c-2.651-0.636-4.964-2.021-6.927-4.162c-1.967-2.132-2.949-5.305-2.949-9.509
				c0-3.654,0.914-7.125,2.73-10.411c1.816-3.291,4.528-6.093,8.143-8.406c3.611-2.316,7.995-3.901,13.156-4.758
				c3.536-0.589,7.01-0.734,10.427-0.446c3.413,0.295,6.423,1.05,9.027,2.28l-5.233,15.062c-5.06-2.04-9.851-2.683-14.372-1.935
				c-4.47,0.745-6.703,2.334-6.703,4.769c0,1.161,0.661,1.92,1.989,2.283c1.327,0.359,3.513,0.619,6.556,0.781
				c3.931,0.176,7.251,0.579,9.948,1.208c2.705,0.633,5.05,2,7.042,4.104c1.989,2.107,2.982,5.261,2.982,9.466
				c0,3.65-0.907,7.11-2.723,10.372c-1.819,3.262-4.535,6.064-8.146,8.405c-3.611,2.341-7.995,3.942-13.153,4.798
				C894.1,1642.021,889.938,1642.172,885.881,1641.766z"/>
			<path style="fill:#FFFFFF;" d="M976.341,1612.271v14.775l-42.889,7.118v-58.102l41.932-6.959v14.774l-24.834,4.122v6.808
				l21.814-3.622v14.113l-21.814,3.618v7.635L976.341,1612.271z"/>
			<path style="fill:#FFFFFF;" d="M1031.829,1603.063v14.775l-42.889,7.117v-58.102l41.932-6.959v14.774l-24.834,4.122v6.808
				l21.814-3.622v14.11l-21.814,3.622v7.635L1031.829,1603.063z"/>
			<path style="fill:#FFFFFF;" d="M1156.369,1539.07l-16.508,60.839l-18.645,3.093l-8.325-29.656l-8.773,32.495l-18.644,3.097
				l-16.504-55.365l17.907-2.971l8.991,31.541l9.506-34.613l15.99-2.655l8.991,31.963l9.505-35.03L1156.369,1539.07z"/>
			<path style="fill:#FFFFFF;" d="M1216.942,1529.015v58.106l-17.385,2.884v-21.414l-16.066,2.665v21.413l-17.393,2.888v-58.106
				l17.393-2.885v20.586l16.066-2.665v-20.586L1216.942,1529.015z"/>
			<path style="fill:#FFFFFF;" d="M1266.391,1568.785l-19.601,3.251l-3.463,10.704l-17.688,2.935l22.554-61.846l17.098-2.834
				l22.546,54.358l-17.983,2.985L1266.391,1568.785z M1261.604,1555.471l-5.01-13.775l-5.013,15.436L1261.604,1555.471z"/>
			<path style="fill:#FFFFFF;" d="M1305.154,1529.568l-15.109,2.507v-15.192l47.607-7.897v15.192l-15.106,2.506v42.91l-17.393,2.884
				V1529.568z"/>
			<path style="fill:#FFFFFF;" d="M1363.518,1503.282c1.816,1.636,2.73,4.056,2.73,7.265c0,1.442-0.176,2.906-0.518,4.402
				c-0.345,1.5-1.129,3.812-2.356,6.952l-5.161,13.221l-10.315,1.712l3.683-14.638c-1.525-0.579-2.701-1.582-3.538-3.024
				c-0.834-1.435-1.252-3.237-1.252-5.395c0-3.208,0.907-5.931,2.727-8.172c1.816-2.237,4.153-3.593,7.002-4.068
				C1359.369,1501.066,1361.703,1501.649,1363.518,1503.282z"/>
			<path style="fill:#FFFFFF;" d="M1385.292,1558.888c-4.05-0.403-7.38-1.306-9.984-2.697l5.604-15.207
				c2.456,1.201,5.204,2.029,8.254,2.489c3.043,0.468,5.966,0.46,8.764-0.004c2.41-0.399,4.132-0.946,5.161-1.643
				c1.032-0.695,1.55-1.568,1.55-2.622c0-1.215-0.679-2.017-2.031-2.399c-1.349-0.385-3.572-0.684-6.664-0.888
				c-3.982-0.281-7.297-0.741-9.948-1.381c-2.655-0.636-4.963-2.025-6.93-4.161c-1.967-2.137-2.949-5.305-2.949-9.509
				c0-3.654,0.913-7.125,2.73-10.416s4.531-6.089,8.143-8.405c3.611-2.313,7.995-3.902,13.156-4.758
				c3.536-0.586,7.009-0.73,10.426-0.443c3.413,0.292,6.424,1.05,9.027,2.277l-5.233,15.062c-5.061-2.035-9.851-2.682-14.372-1.931
				c-4.471,0.741-6.704,2.334-6.704,4.766c0,1.165,0.662,1.924,1.989,2.287c1.327,0.36,3.514,0.619,6.557,0.777
				c3.931,0.18,7.251,0.583,9.952,1.212c2.701,0.629,5.046,1.999,7.038,4.1c1.989,2.111,2.982,5.262,2.982,9.47
				c0,3.647-0.906,7.106-2.722,10.369c-1.82,3.262-4.535,6.067-8.146,8.405c-3.607,2.344-7.995,3.941-13.152,4.797
				C1393.51,1559.142,1389.349,1559.297,1385.292,1558.888z"/>
			<path style="fill:#FFFFFF;" d="M1511.714,1480.098v58.102l-14.297,2.373l-19.601-23.14v26.391l-16.951,2.813v-58.098
				l14.297-2.374l19.601,23.14v-26.391L1511.714,1480.098z"/>
			<path style="fill:#FFFFFF;" d="M1568.895,1513.938v14.775l-42.888,7.117v-58.102l41.932-6.959v14.774l-24.834,4.122v6.808
				l21.813-3.622v14.11l-21.813,3.622v7.635L1568.895,1513.938z"/>
			<path style="fill:#FFFFFF;" d="M1664.696,1454.71l-16.504,60.843l-18.645,3.097l-8.329-29.665l-8.769,32.498l-18.644,3.094
				l-16.508-55.361l17.907-2.971l8.991,31.542l9.506-34.61l15.99-2.654l8.991,31.958l9.509-35.03L1664.696,1454.71z"/>
		</g>
	</g>
</g>
</svg>
