<svg width="1440" height="1024" viewBox="0 0 1440 1024" fill="none" xmlns="http://www.w3.org/2000/svg">
<g clip-path="url(#clip0_1345_3141)">
<rect width="1440" height="1024" fill="#FFF1C3"/>
<path d="M-0.181505 684.034C-0.0611254 684.345 0.0592539 684.656 0.179633 684.967C23.6269 677.897 47.7324 673.257 72.2308 670.388C260.569 653.482 445.113 708.942 631.28 745.406C873.954 789.828 1152.22 870.282 1383.57 734.221C1404.41 720.244 1423.33 704.166 1440.34 685.863C1440.11 685.622 1439.88 685.381 1439.65 685.141C1420.68 701.3 1400.41 714.869 1378.8 726.234C1145.42 832.489 886.383 741.007 641.467 696.455C456.223 660.106 260.741 615.696 70.112 658.989C45.6229 665.226 21.9798 673.441 -0.181505 684.034Z" fill="#FFF1A6"/>
<path d="M-0.245558 683.238C-0.0818526 683.528 0.0818526 683.819 0.245558 684.109C23.5043 674.905 46.7916 667.416 70.4682 661.238C294.435 606.012 516.477 661.765 739.931 706.44C942.929 741.892 1165.83 818.884 1381.21 732.084C1404.01 719.991 1424.78 703.654 1440.34 684.039C1440.11 683.795 1439.89 683.551 1439.66 683.307C1419.13 697.438 1396.35 706.47 1373.45 711.598C1170.2 737.508 971.663 639.12 761.814 601.702C537.004 555.466 277.374 527.137 62.8711 642.276C40.674 654.484 19.711 668.085 -0.245558 683.238Z" fill="#EEAA00"/>
<path d="M-24.2309 696.057C-24.077 696.352 -23.923 696.648 -23.7691 696.944C-0.616386 686.202 22.4333 677.309 46.4744 669.691C274.677 599.033 510.673 667.466 737.455 723.523C942.138 771.016 1180.15 848.325 1378.01 730.564C1399.53 716.872 1419.08 701.122 1437.33 683.003C1437.11 682.756 1436.89 682.508 1436.67 682.26C1416.79 698.48 1396.09 712.082 1373.97 723.544C1174.59 819.724 953.357 735.288 746.5 687.646C520.866 631.425 269.937 571.151 43.884 662.548C20.2427 672.243 -2.1054 683.245 -24.2309 696.057Z" fill="#FFB804"/>
</g>
<defs>
<clipPath id="clip0_1345_3141">
<rect width="1440" height="1024" fill="white"/>
</clipPath>
</defs>
</svg>
